<svg xmlns="http://www.w3.org/2000/svg" viewBox="0 0 360 520" role="img" aria-label="ハロルド警部">
  <defs>
    <linearGradient id="bg" x1="0" y1="0" x2="1" y2="1">
      <stop offset="0" stop-color="#243747"/>
      <stop offset="1" stop-color="#0e1218"/>
    </linearGradient>
    <linearGradient id="coat" x1="0" y1="0" x2="0" y2="1">
      <stop offset="0" stop-color="#2f4d64"/>
      <stop offset="1" stop-color="#142431"/>
    </linearGradient>
    <filter id="shadow" x="-20%" y="-20%" width="140%" height="140%">
      <feDropShadow dx="0" dy="18" stdDeviation="18" flood-color="#03060a" flood-opacity=".55"/>
    </filter>
  </defs>
  <rect width="360" height="520" rx="0" fill="url(#bg)"/>
  <path d="M68 88c56-52 168-54 223 0 38 37 40 92 16 134-19 33-11 72 9 114 27 56 25 118 13 160H31c-11-44-10-99 16-156 20-44 26-84 8-118-23-43-20-97 13-134Z" fill="#121921" opacity=".75"/>
  <g filter="url(#shadow)">
    <path d="M116 210h128l40 270H76l40-270Z" fill="url(#coat)"/>
    <path d="M118 214 77 480h58l25-178-42-88Z" fill="#20394d"/>
    <path d="M242 214 283 480h-58l-25-178 42-88Z" fill="#102131"/>
    <path d="M137 236h86l-20 244h-46l-20-244Z" fill="#101923"/>
    <path d="M148 210h64l-12 54h-40l-12-54Z" fill="#d5dbe0"/>
    <path d="M166 260h28l10 220h-48l10-220Z" fill="#1b222b"/>
    <path d="M164 262 148 480h-20l21-208 15-10Z" fill="#8fb0c9" opacity=".22"/>
    <path d="M196 262 212 480h20l-21-208-15-10Z" fill="#8fb0c9" opacity=".22"/>
    <path d="M128 94c9-38 43-58 78-45 27 10 39 37 39 72 0 62-28 98-65 98s-63-42-52-125Z" fill="#d0b19a"/>
    <path d="M125 119c7-54 31-84 75-80 43 4 60 42 48 92-12-31-33-31-60-28-26 3-48-2-63 16Z" fill="#6f747a"/>
    <path d="M132 126c-9 4-12 22-4 36 4 8 11 9 15 5l-5-43-6 2Z" fill="#c49d84"/>
    <path d="M242 126c9 4 12 22 4 36-4 8-11 9-15 5l5-43 6 2Z" fill="#c49d84"/>
    <path d="M152 140c11-8 24-8 34-1" stroke="#26323b" stroke-width="5" stroke-linecap="round" fill="none"/>
    <path d="M199 139c10-7 22-7 31 0" stroke="#26323b" stroke-width="5" stroke-linecap="round" fill="none"/>
    <circle cx="171" cy="151" r="4" fill="#1c252d"/>
    <circle cx="214" cy="151" r="4" fill="#1c252d"/>
    <path d="M190 158c-3 10-2 18 4 23" stroke="#8d6e5d" stroke-width="4" stroke-linecap="round" fill="none"/>
    <path d="M166 193c14 9 34 9 48 0" stroke="#7d574c" stroke-width="4" stroke-linecap="round" fill="none"/>
    <path d="M122 104c18-29 46-45 86-39 24 4 37 18 45 37-16-10-33-10-53-5-29 8-53 0-78 7Z" fill="#4b535b"/>
    <path d="M105 208h150l-12 38H117l-12-38Z" fill="#20384b"/>
    <path d="M107 209c29 31 61 46 73 46s44-15 73-46" stroke="#6c8ca4" stroke-width="4" fill="none" opacity=".8"/>
    <circle cx="238" cy="326" r="26" fill="#c8b06a"/>
    <circle cx="238" cy="326" r="20" fill="#f0d98b"/>
    <path d="M238 312v14l10 8" stroke="#403719" stroke-width="4" stroke-linecap="round" fill="none"/>
    <path d="M222 304c-13-16-22-27-26-36 22 2 40 12 55 31l-29 5Z" fill="#111820" opacity=".55"/>
    <path d="M120 337c-19 36-24 78-16 126" stroke="#091017" stroke-width="16" stroke-linecap="round"/>
    <path d="M272 337c17 38 20 79 11 126" stroke="#091017" stroke-width="16" stroke-linecap="round"/>
    <path d="M99 452c-8 3-15 11-13 21 1 7 8 10 15 7l20-8-8-24-14 4Z" fill="#16100d"/>
    <path d="M283 452c8 3 15 11 13 21-1 7-8 10-15 7l-20-8 8-24 14 4Z" fill="#16100d"/>
  </g>
  <path d="M128 86c-20-32-35-50-54-61 21 2 45 21 64 48l-10 13Z" fill="#05070a" opacity=".4"/>
  <path d="M234 86c20-32 35-50 54-61-21 2-45 21-64 48l10 13Z" fill="#05070a" opacity=".4"/>
  <path d="M57 470h246" stroke="#8fb0c9" stroke-width="2" opacity=".28"/>
  <text x="180" y="500" text-anchor="middle" font-family="Georgia, serif" font-size="20" fill="#d6e2ea" letter-spacing="2">INSPECTOR HAROLD</text>
</svg>
