<svg xmlns="http://www.w3.org/2000/svg" viewBox="0 0 720 960" role="img" aria-labelledby="title desc">
  <title id="title">黒裂レンのシルエット</title>
  <desc id="desc">赤い霧を背にした、逃亡中の凶悪犯の暗い人物シルエット。</desc>
  <defs>
    <linearGradient id="bg" x1="0" x2="1" y1="0" y2="1">
      <stop offset="0" stop-color="#161314"/>
      <stop offset="0.48" stop-color="#2a1515"/>
      <stop offset="1" stop-color="#050506"/>
    </linearGradient>
    <linearGradient id="coat" x1="0" x2="1" y1="0" y2="1">
      <stop offset="0" stop-color="#2f3335"/>
      <stop offset="1" stop-color="#070809"/>
    </linearGradient>
    <radialGradient id="flare" cx="48%" cy="32%" r="55%">
      <stop offset="0" stop-color="#d0443e" stop-opacity="0.55"/>
      <stop offset="0.52" stop-color="#7b2422" stop-opacity="0.24"/>
      <stop offset="1" stop-color="#000000" stop-opacity="0"/>
    </radialGradient>
    <filter id="rough">
      <feTurbulence type="fractalNoise" baseFrequency="0.9" numOctaves="2" seed="18"/>
      <feColorMatrix type="saturate" values="0"/>
      <feComponentTransfer>
        <feFuncA type="table" tableValues="0 0.15"/>
      </feComponentTransfer>
    </filter>
  </defs>
  <rect width="720" height="960" fill="url(#bg)"/>
  <rect width="720" height="960" fill="url(#flare)"/>
  <g opacity="0.2" stroke="#d0443e" stroke-width="2">
    <path d="M86 210 C210 185 304 205 426 170 S612 142 680 96" fill="none"/>
    <path d="M22 552 C176 512 278 585 404 541 S605 460 735 503" fill="none"/>
    <path d="M115 735 C248 715 362 751 503 712 S660 659 734 678" fill="none"/>
  </g>
  <g transform="translate(360 494)">
    <path d="M-166 347 C-141 183 -124 57 -92 -55 C-70 -131 -32 -160 0 -161 C39 -161 81 -126 102 -51 C133 64 154 190 178 347 Z" fill="url(#coat)"/>
    <path d="M-97 -36 C-138 70 -169 193 -192 347 L-118 347 C-101 229 -70 95 -28 -50 Z" fill="#151719"/>
    <path d="M91 -32 C139 93 170 227 192 347 L116 347 C98 214 66 94 28 -52 Z" fill="#101113"/>
    <path d="M-84 -125 C-52 -199 -1 -224 52 -184 C96 -150 108 -76 83 -24 C52 39 -50 39 -86 -18 C-105 -49 -103 -82 -84 -125 Z" fill="#201817"/>
    <path d="M-57 -146 C-32 -209 55 -210 83 -149 C61 -161 35 -158 8 -143 C-26 -125 -56 -114 -101 -116 C-82 -126 -68 -136 -57 -146 Z" fill="#050506"/>
    <path d="M-24 -96 C-64 -67 -94 -34 -107 16 C-142 -57 -107 -140 -44 -166 C-50 -135 -43 -114 -24 -96 Z" fill="#070708"/>
    <path d="M23 -35 C44 -42 58 -42 76 -34" stroke="#d0443e" stroke-width="7" stroke-linecap="round"/>
    <path d="M39 4 C60 7 77 16 92 31" stroke="#6c1e1c" stroke-width="5" stroke-linecap="round"/>
    <path d="M-59 -3 C-35 24 10 36 52 16" stroke="#090909" stroke-width="18" stroke-linecap="round" opacity="0.55"/>
    <path d="M-132 20 L-217 215 L-184 236 L-96 67 Z" fill="#151719"/>
    <path d="M130 21 L229 212 L198 238 L97 65 Z" fill="#111214"/>
    <path d="M-166 347 C-126 280 -82 253 -18 268 C52 284 117 276 178 347 Z" fill="#070809" opacity="0.9"/>
  </g>
  <rect width="720" height="960" filter="url(#rough)" opacity="0.5"/>
</svg>
